<mxfile host="Electron" agent="Mozilla/5.0 (Windows NT 10.0; Win64; x64) AppleWebKit/537.36 (KHTML, like Gecko) draw.io/24.7.17 Chrome/128.0.6613.36 Electron/32.0.1 Safari/537.36" version="24.7.17">
  <diagram name="Seite-1" id="uNtblHWR1sysxf7LfqLS">
    <mxGraphModel dx="1167" dy="699" grid="1" gridSize="10" guides="1" tooltips="1" connect="1" arrows="1" fold="1" page="1" pageScale="1" pageWidth="827" pageHeight="1169" math="0" shadow="0">
      <root>
        <mxCell id="0" />
        <mxCell id="1" parent="0" />
        <mxCell id="Z8Je9hNQwCq4KAwpZeBF-8" style="rounded=0;orthogonalLoop=1;jettySize=auto;html=1;endArrow=none;endFill=0;" edge="1" parent="1" source="Z8Je9hNQwCq4KAwpZeBF-9" target="Z8Je9hNQwCq4KAwpZeBF-4">
          <mxGeometry relative="1" as="geometry" />
        </mxCell>
        <mxCell id="Z8Je9hNQwCq4KAwpZeBF-1" value="LORA network&lt;div&gt;(TTN)&lt;/div&gt;" style="ellipse;shape=cloud;whiteSpace=wrap;html=1;" vertex="1" parent="1">
          <mxGeometry x="51" y="240" width="120" height="80" as="geometry" />
        </mxCell>
        <mxCell id="Z8Je9hNQwCq4KAwpZeBF-4" value="Internet&lt;div&gt;(HTTPS)&lt;/div&gt;" style="ellipse;shape=cloud;whiteSpace=wrap;html=1;" vertex="1" parent="1">
          <mxGeometry x="170" y="140" width="120" height="80" as="geometry" />
        </mxCell>
        <mxCell id="Z8Je9hNQwCq4KAwpZeBF-7" style="rounded=0;orthogonalLoop=1;jettySize=auto;html=1;endArrow=none;endFill=0;" edge="1" parent="1" source="Z8Je9hNQwCq4KAwpZeBF-6" target="Z8Je9hNQwCq4KAwpZeBF-4">
          <mxGeometry relative="1" as="geometry">
            <mxPoint x="210" y="270" as="targetPoint" />
          </mxGeometry>
        </mxCell>
        <mxCell id="Z8Je9hNQwCq4KAwpZeBF-6" value="" style="shape=actor;whiteSpace=wrap;html=1;" vertex="1" parent="1">
          <mxGeometry x="100" y="150" width="40" height="60" as="geometry" />
        </mxCell>
        <UserObject label="Server&lt;div&gt;&lt;br&gt;&lt;/div&gt;&lt;div&gt;(Raspberry Pi 4)&lt;/div&gt;" treeRoot="1" id="Z8Je9hNQwCq4KAwpZeBF-9">
          <mxCell style="whiteSpace=wrap;html=1;align=center;treeFolding=1;treeMoving=1;newEdgeStyle={&quot;edgeStyle&quot;:&quot;elbowEdgeStyle&quot;,&quot;startArrow&quot;:&quot;none&quot;,&quot;endArrow&quot;:&quot;none&quot;};" vertex="1" parent="1">
            <mxGeometry x="320" y="150" width="120" height="60" as="geometry" />
          </mxCell>
        </UserObject>
        <mxCell id="Z8Je9hNQwCq4KAwpZeBF-10" style="rounded=0;orthogonalLoop=1;jettySize=auto;html=1;endArrow=none;endFill=0;" edge="1" parent="1" source="Z8Je9hNQwCq4KAwpZeBF-50" target="Z8Je9hNQwCq4KAwpZeBF-1">
          <mxGeometry relative="1" as="geometry">
            <mxPoint x="341" y="220" as="sourcePoint" />
            <mxPoint x="304" y="243" as="targetPoint" />
          </mxGeometry>
        </mxCell>
        <mxCell id="Z8Je9hNQwCq4KAwpZeBF-23" value="Sensor device" style="swimlane;startSize=20;horizontal=1;containerType=tree;" vertex="1" parent="1">
          <mxGeometry x="70" y="340" width="370" height="500" as="geometry" />
        </mxCell>
        <UserObject label="&lt;div&gt;&lt;span style=&quot;background-color: initial;&quot;&gt;(Arduino Uno)&lt;/span&gt;&lt;br&gt;&lt;/div&gt;" treeRoot="1" id="Z8Je9hNQwCq4KAwpZeBF-20">
          <mxCell style="whiteSpace=wrap;html=1;align=center;treeFolding=1;treeMoving=1;newEdgeStyle={&quot;edgeStyle&quot;:&quot;elbowEdgeStyle&quot;,&quot;startArrow&quot;:&quot;none&quot;,&quot;endArrow&quot;:&quot;none&quot;};" vertex="1" parent="Z8Je9hNQwCq4KAwpZeBF-23">
            <mxGeometry x="121" y="30" width="120" height="60" as="geometry" />
          </mxCell>
        </UserObject>
        <UserObject label="&lt;div&gt;&lt;span style=&quot;background-color: initial;&quot;&gt;(Soil Moisture Sensor)&lt;/span&gt;&lt;br&gt;&lt;/div&gt;" treeRoot="1" id="Z8Je9hNQwCq4KAwpZeBF-21">
          <mxCell style="whiteSpace=wrap;html=1;align=center;treeFolding=1;treeMoving=1;newEdgeStyle={&quot;edgeStyle&quot;:&quot;elbowEdgeStyle&quot;,&quot;startArrow&quot;:&quot;none&quot;,&quot;endArrow&quot;:&quot;none&quot;};" vertex="1" parent="Z8Je9hNQwCq4KAwpZeBF-23">
            <mxGeometry x="10" y="420" width="120" height="60" as="geometry" />
          </mxCell>
        </UserObject>
        <UserObject label="&lt;div&gt;&lt;span style=&quot;background-color: initial;&quot;&gt;(BME280 I2C/SPI Temperature Humidity Pressure Sensor)&lt;/span&gt;&lt;br&gt;&lt;/div&gt;" treeRoot="1" id="Z8Je9hNQwCq4KAwpZeBF-22">
          <mxCell style="whiteSpace=wrap;html=1;align=center;treeFolding=1;treeMoving=1;newEdgeStyle={&quot;edgeStyle&quot;:&quot;elbowEdgeStyle&quot;,&quot;startArrow&quot;:&quot;none&quot;,&quot;endArrow&quot;:&quot;none&quot;};" vertex="1" parent="Z8Je9hNQwCq4KAwpZeBF-23">
            <mxGeometry x="210" y="420" width="120" height="60" as="geometry" />
          </mxCell>
        </UserObject>
        <mxCell id="Z8Je9hNQwCq4KAwpZeBF-34" value="LORA grove extension board" style="swimlane;startSize=20;horizontal=1;containerType=tree;" vertex="1" parent="Z8Je9hNQwCq4KAwpZeBF-23">
          <mxGeometry x="30.5" y="120" width="310" height="260" as="geometry" />
        </mxCell>
        <UserObject label="&lt;div&gt;&lt;span style=&quot;background-color: initial;&quot;&gt;(Humidity, Temperature Sensor)&lt;/span&gt;&lt;br&gt;&lt;/div&gt;" treeRoot="1" id="Z8Je9hNQwCq4KAwpZeBF-36">
          <mxCell style="whiteSpace=wrap;html=1;align=center;treeFolding=1;treeMoving=1;newEdgeStyle={&quot;edgeStyle&quot;:&quot;elbowEdgeStyle&quot;,&quot;startArrow&quot;:&quot;none&quot;,&quot;endArrow&quot;:&quot;none&quot;};" vertex="1" parent="Z8Je9hNQwCq4KAwpZeBF-34">
            <mxGeometry x="180" y="110" width="120" height="60" as="geometry" />
          </mxCell>
        </UserObject>
        <UserObject label="&lt;div&gt;&lt;span style=&quot;background-color: initial;&quot;&gt;(LORA antenna)&lt;/span&gt;&lt;br&gt;&lt;/div&gt;" treeRoot="1" id="Z8Je9hNQwCq4KAwpZeBF-37">
          <mxCell style="whiteSpace=wrap;html=1;align=center;treeFolding=1;treeMoving=1;newEdgeStyle={&quot;edgeStyle&quot;:&quot;elbowEdgeStyle&quot;,&quot;startArrow&quot;:&quot;none&quot;,&quot;endArrow&quot;:&quot;none&quot;};" vertex="1" parent="Z8Je9hNQwCq4KAwpZeBF-34">
            <mxGeometry x="180" y="40" width="120" height="60" as="geometry" />
          </mxCell>
        </UserObject>
        <UserObject label="board" treeRoot="1" id="Z8Je9hNQwCq4KAwpZeBF-38">
          <mxCell style="whiteSpace=wrap;html=1;align=center;treeFolding=1;treeMoving=1;newEdgeStyle={&quot;edgeStyle&quot;:&quot;elbowEdgeStyle&quot;,&quot;startArrow&quot;:&quot;none&quot;,&quot;endArrow&quot;:&quot;none&quot;};" vertex="1" parent="Z8Je9hNQwCq4KAwpZeBF-34">
            <mxGeometry x="10" y="40" width="120" height="60" as="geometry" />
          </mxCell>
        </UserObject>
        <mxCell id="Z8Je9hNQwCq4KAwpZeBF-40" style="rounded=0;orthogonalLoop=1;jettySize=auto;html=1;endArrow=none;endFill=0;entryX=0;entryY=0.5;entryDx=0;entryDy=0;" edge="1" parent="Z8Je9hNQwCq4KAwpZeBF-34" source="Z8Je9hNQwCq4KAwpZeBF-38" target="Z8Je9hNQwCq4KAwpZeBF-36">
          <mxGeometry relative="1" as="geometry">
            <mxPoint x="434" y="-80" as="sourcePoint" />
            <mxPoint x="371" y="-38" as="targetPoint" />
          </mxGeometry>
        </mxCell>
        <mxCell id="Z8Je9hNQwCq4KAwpZeBF-41" value="(i2c)" style="edgeLabel;html=1;align=center;verticalAlign=middle;resizable=0;points=[];" vertex="1" connectable="0" parent="Z8Je9hNQwCq4KAwpZeBF-40">
          <mxGeometry x="0.04" relative="1" as="geometry">
            <mxPoint as="offset" />
          </mxGeometry>
        </mxCell>
        <mxCell id="Z8Je9hNQwCq4KAwpZeBF-42" style="rounded=0;orthogonalLoop=1;jettySize=auto;html=1;endArrow=none;endFill=0;" edge="1" parent="Z8Je9hNQwCq4KAwpZeBF-34" source="Z8Je9hNQwCq4KAwpZeBF-38" target="Z8Je9hNQwCq4KAwpZeBF-37">
          <mxGeometry relative="1" as="geometry">
            <mxPoint x="161" y="200" as="sourcePoint" />
            <mxPoint x="121" y="240" as="targetPoint" />
          </mxGeometry>
        </mxCell>
        <UserObject label="&lt;div&gt;&lt;span style=&quot;background-color: initial;&quot;&gt;(CO2 Sensor)&lt;/span&gt;&lt;br&gt;&lt;/div&gt;" treeRoot="1" id="Z8Je9hNQwCq4KAwpZeBF-44">
          <mxCell style="whiteSpace=wrap;html=1;align=center;treeFolding=1;treeMoving=1;newEdgeStyle={&quot;edgeStyle&quot;:&quot;elbowEdgeStyle&quot;,&quot;startArrow&quot;:&quot;none&quot;,&quot;endArrow&quot;:&quot;none&quot;};" vertex="1" parent="Z8Je9hNQwCq4KAwpZeBF-34">
            <mxGeometry x="180" y="180" width="120" height="60" as="geometry" />
          </mxCell>
        </UserObject>
        <mxCell id="Z8Je9hNQwCq4KAwpZeBF-45" style="rounded=0;orthogonalLoop=1;jettySize=auto;html=1;endArrow=none;endFill=0;entryX=0;entryY=0.5;entryDx=0;entryDy=0;" edge="1" parent="Z8Je9hNQwCq4KAwpZeBF-34" source="Z8Je9hNQwCq4KAwpZeBF-38" target="Z8Je9hNQwCq4KAwpZeBF-44">
          <mxGeometry relative="1" as="geometry">
            <mxPoint x="140" y="105" as="sourcePoint" />
            <mxPoint x="190" y="125" as="targetPoint" />
          </mxGeometry>
        </mxCell>
        <mxCell id="Z8Je9hNQwCq4KAwpZeBF-46" value="(i2c)" style="edgeLabel;html=1;align=center;verticalAlign=middle;resizable=0;points=[];" vertex="1" connectable="0" parent="Z8Je9hNQwCq4KAwpZeBF-45">
          <mxGeometry x="0.04" relative="1" as="geometry">
            <mxPoint as="offset" />
          </mxGeometry>
        </mxCell>
        <mxCell id="Z8Je9hNQwCq4KAwpZeBF-29" style="rounded=0;orthogonalLoop=1;jettySize=auto;html=1;endArrow=none;endFill=0;" edge="1" parent="Z8Je9hNQwCq4KAwpZeBF-23" source="Z8Je9hNQwCq4KAwpZeBF-34" target="Z8Je9hNQwCq4KAwpZeBF-20">
          <mxGeometry relative="1" as="geometry">
            <mxPoint x="541.5714285714284" y="-110" as="sourcePoint" />
            <mxPoint x="420" y="-16" as="targetPoint" />
          </mxGeometry>
        </mxCell>
        <mxCell id="Z8Je9hNQwCq4KAwpZeBF-31" style="rounded=0;orthogonalLoop=1;jettySize=auto;html=1;endArrow=none;endFill=0;" edge="1" parent="Z8Je9hNQwCq4KAwpZeBF-23" source="Z8Je9hNQwCq4KAwpZeBF-34" target="Z8Je9hNQwCq4KAwpZeBF-21">
          <mxGeometry relative="1" as="geometry">
            <mxPoint x="562.7560975609756" y="-110" as="sourcePoint" />
            <mxPoint x="381" y="-28" as="targetPoint" />
          </mxGeometry>
        </mxCell>
        <mxCell id="Z8Je9hNQwCq4KAwpZeBF-33" value="(ground, enable,var read)" style="edgeLabel;html=1;align=center;verticalAlign=middle;resizable=0;points=[];" vertex="1" connectable="0" parent="Z8Je9hNQwCq4KAwpZeBF-31">
          <mxGeometry x="0.04" relative="1" as="geometry">
            <mxPoint as="offset" />
          </mxGeometry>
        </mxCell>
        <mxCell id="Z8Je9hNQwCq4KAwpZeBF-32" style="rounded=0;orthogonalLoop=1;jettySize=auto;html=1;endArrow=none;endFill=0;" edge="1" parent="Z8Je9hNQwCq4KAwpZeBF-23" source="Z8Je9hNQwCq4KAwpZeBF-34" target="Z8Je9hNQwCq4KAwpZeBF-22">
          <mxGeometry relative="1" as="geometry">
            <mxPoint x="577.3902439024391" y="-110" as="sourcePoint" />
            <mxPoint x="131" y="250" as="targetPoint" />
          </mxGeometry>
        </mxCell>
        <mxCell id="Z8Je9hNQwCq4KAwpZeBF-48" value="(i2c)" style="edgeLabel;html=1;align=center;verticalAlign=middle;resizable=0;points=[];" vertex="1" connectable="0" parent="Z8Je9hNQwCq4KAwpZeBF-32">
          <mxGeometry x="0.0811" y="4" relative="1" as="geometry">
            <mxPoint as="offset" />
          </mxGeometry>
        </mxCell>
        <mxCell id="Z8Je9hNQwCq4KAwpZeBF-28" style="rounded=0;orthogonalLoop=1;jettySize=auto;html=1;endArrow=none;endFill=0;exitX=0.25;exitY=0;exitDx=0;exitDy=0;" edge="1" parent="1" source="Z8Je9hNQwCq4KAwpZeBF-23" target="Z8Je9hNQwCq4KAwpZeBF-1">
          <mxGeometry relative="1" as="geometry">
            <mxPoint x="345" y="220" as="sourcePoint" />
            <mxPoint x="282" y="262" as="targetPoint" />
          </mxGeometry>
        </mxCell>
        <mxCell id="Z8Je9hNQwCq4KAwpZeBF-49" value="Internet&lt;div&gt;(HTTPS)&lt;/div&gt;" style="ellipse;shape=cloud;whiteSpace=wrap;html=1;" vertex="1" parent="1">
          <mxGeometry x="341" y="240" width="120" height="80" as="geometry" />
        </mxCell>
        <UserObject label="Gateway&lt;div&gt;&lt;br&gt;&lt;/div&gt;&lt;div&gt;(?)&lt;/div&gt;" treeRoot="1" id="Z8Je9hNQwCq4KAwpZeBF-50">
          <mxCell style="whiteSpace=wrap;html=1;align=center;treeFolding=1;treeMoving=1;newEdgeStyle={&quot;edgeStyle&quot;:&quot;elbowEdgeStyle&quot;,&quot;startArrow&quot;:&quot;none&quot;,&quot;endArrow&quot;:&quot;none&quot;};" vertex="1" parent="1">
            <mxGeometry x="191" y="250" width="120" height="60" as="geometry" />
          </mxCell>
        </UserObject>
        <mxCell id="Z8Je9hNQwCq4KAwpZeBF-51" style="rounded=0;orthogonalLoop=1;jettySize=auto;html=1;endArrow=none;endFill=0;" edge="1" parent="1" source="Z8Je9hNQwCq4KAwpZeBF-49" target="Z8Je9hNQwCq4KAwpZeBF-50">
          <mxGeometry relative="1" as="geometry">
            <mxPoint x="330" y="190" as="sourcePoint" />
            <mxPoint x="300" y="190" as="targetPoint" />
          </mxGeometry>
        </mxCell>
        <mxCell id="Z8Je9hNQwCq4KAwpZeBF-52" style="rounded=0;orthogonalLoop=1;jettySize=auto;html=1;endArrow=none;endFill=0;" edge="1" parent="1" source="Z8Je9hNQwCq4KAwpZeBF-49" target="Z8Je9hNQwCq4KAwpZeBF-9">
          <mxGeometry relative="1" as="geometry">
            <mxPoint x="410" y="283" as="sourcePoint" />
            <mxPoint x="370" y="286" as="targetPoint" />
          </mxGeometry>
        </mxCell>
      </root>
    </mxGraphModel>
  </diagram>
</mxfile>
